<?xml version="1.0" encoding="UTF-8" standalone="no"?>
<!-- Created with Inkscape (http://www.inkscape.org/) -->

<svg
   width="32"
   height="32"
   viewBox="0 0 32 32"
   version="1.1"
   id="svg5"
   inkscape:version="1.1.1 (3bf5ae0d25, 2021-09-20)"
   sodipodi:docname="explorex ICON.svg"
   xmlns:inkscape="http://www.inkscape.org/namespaces/inkscape"
   xmlns:sodipodi="http://sodipodi.sourceforge.net/DTD/sodipodi-0.dtd"
   xmlns="http://www.w3.org/2000/svg"
   xmlns:svg="http://www.w3.org/2000/svg">
  <sodipodi:namedview
     id="namedview7"
     pagecolor="#505050"
     bordercolor="#eeeeee"
     borderopacity="1"
     inkscape:pageshadow="0"
     inkscape:pageopacity="0"
     inkscape:pagecheckerboard="0"
     inkscape:document-units="px"
     showgrid="false"
     showguides="true"
     inkscape:guide-bbox="true"
     inkscape:zoom="16"
     inkscape:rotation="-90"
     inkscape:cx="21.78117"
     inkscape:cy="-0.11069044"
     inkscape:window-width="1920"
     inkscape:window-height="991"
     inkscape:window-x="-9"
     inkscape:window-y="-9"
     inkscape:window-maximized="1"
     inkscape:current-layer="layer2">
    <sodipodi:guide
       position="56.738155,-10.294264"
       orientation="0,-1"
       id="guide1698" />
  </sodipodi:namedview>
  <defs
     id="defs2" />
  <g
     inkscape:label="Camada 1"
     inkscape:groupmode="layer"
     id="layer1">
    <rect
       style="fill:#ffe680;stroke-width:3.06929"
       id="rect684-8"
       width="28.807981"
       height="28.887781"
       x="1.5162097"
       y="1.2768081"
       ry="5.9850378" />
  </g>
  <g
     inkscape:groupmode="layer"
     id="layer2"
     inkscape:label="Camada 2">
    <rect
       style="fill:#0066ff"
       id="rect684"
       width="16.279303"
       height="5.426434"
       x="3.032418"
       y="3.431421"
       ry="2.713217" />
    <rect
       style="fill:#0066ff"
       id="rect684-4"
       width="16.279303"
       height="5.426434"
       x="3.1970069"
       y="18.114714"
       ry="2.713217" />
    <rect
       style="fill:#0066ff"
       id="rect684-0"
       width="16.279303"
       height="5.426434"
       x="3.032418"
       y="10.857855"
       ry="2.713217" />
    <path
       style="fill:#ff2a2a;stroke:#ff2a2a;stroke-width:0.319263px;stroke-linecap:butt;stroke-linejoin:miter;stroke-opacity:1"
       d="m 22.206972,24.798875 c -0.252713,0.429946 -0.520782,0.847783 -0.755721,1.288362 -0.03177,0.05959 -0.188866,0.244462 -0.201525,0.309207 -0.0049,0.02527 0.0094,0.05338 0,0.0773 -0.0088,0.02256 -0.03976,0.02981 -0.05038,0.05153 -0.01058,0.02163 -0.05216,0.178552 -0.02519,0.206138 0.02329,0.02382 0.176003,-0.02569 0.176335,-0.02577 0.201034,-0.0457 0.345236,-0.189453 0.529004,-0.28344 0.0475,-0.0243 0.108659,-0.01894 0.151145,-0.05154 0.02907,-0.0223 0.05429,-0.0773 0.100762,-0.0773 0.0084,0 0.0022,0.01748 0,0.02577 -0.02307,0.08651 -0.05298,0.171027 -0.07557,0.257672 -0.03097,0.118784 -0.07194,0.242832 -0.100762,0.360742 -0.0061,0.025 0.0069,0.05252 0,0.0773 -0.03376,0.120868 -0.107972,0.231987 -0.125954,0.360742 -6.41e-4,0.0046 -0.02925,0.229826 -0.02519,0.231905 0.01679,0.0086 0.03536,-0.01424 0.05038,-0.02577 0.08603,-0.066 0.166488,-0.139323 0.251907,-0.206138 0.109399,-0.08557 0.211633,-0.181495 0.327479,-0.257673 0.110558,-0.0727 0.246376,-0.101297 0.35267,-0.180368 0.04802,-0.03572 0.07731,-0.09401 0.125953,-0.128836 0.03704,-0.02653 0.08833,-0.02588 0.125954,-0.05154 0.0219,-0.01494 0.262671,-0.257672 0.277098,-0.257672 0.0084,0 0,0.01718 0,0.02577 0,0.05153 0,0.103069 0,0.154603 0,0.109933 -0.07242,0.444501 -0.02519,0.541113 0.03632,0.07429 0.04202,-0.06019 0.05038,-0.0773 0.01593,-0.03259 0.05581,-0.04698 0.07557,-0.0773 0.01603,-0.0246 0.03095,-0.07326 0.05038,-0.103072 0.02519,-0.03865 0.05038,-0.02577 0.07557,-0.0773 0.01548,-0.03168 0.0097,-0.07139 0.02519,-0.103069 0.0038,-0.0077 0.01925,0.0061 0.02519,0 0.0106,-0.01084 -0.0046,-0.09363 0,-0.103069 0.0023,-0.0047 0.04232,-0.0268 0.05038,-0.05153 0.02463,-0.07558 -1.73e-4,-0.102804 0.05038,-0.180371 0.03851,-0.05909 0.01773,-0.224275 0.05038,-0.257672 0.0059,-0.0061 0.01925,0.0061 0.02519,0 0.01188,-0.01215 -0.0053,-0.03524 0,-0.05153 0.0047,-0.01438 0.06937,-0.167684 0.07557,-0.18037 0.0312,-0.06382 0.01919,0.01229 0.05038,-0.05153 0.03102,-0.06346 -0.07312,0.02326 0.02519,-0.0773 0.01328,-0.01358 0.03997,-0.0098 0.05038,-0.02577 0.0192,-0.02947 0.006,-0.0736 0.02519,-0.103069 0.06368,-0.0977 0.134943,-0.192631 0.201525,-0.283439 0.06114,-0.08339 0.09418,-0.196045 0.151144,-0.28344 -0.0025,-0.05105 0.0371,-0.01219 0.05038,-0.02577 0.0126,-0.01288 -0.0126,-0.06442 0,-0.0773 0.05392,-0.05515 0.178266,0.112266 0.277098,0.206138 0.291562,0.276933 0.565,0.573461 0.856484,0.850319 0.10776,0.102353 0.210432,0.191759 0.302288,0.309207 0.09294,0.118827 0.138165,0.244396 0.251907,0.360741 0.04637,0.04744 0.09868,0.08859 0.151145,0.128836 0.07146,0.05482 0.182528,0.13526 0.277097,0.154607 0.0082,0.0017 0,-0.01718 0,-0.02577 0,-0.04295 0,-0.08589 0,-0.12884 0,-0.190656 -0.04217,-0.37894 -0.07557,-0.566879 -0.0026,-0.01476 -0.05189,-0.15306 -0.02519,-0.18037 0.03612,-0.03694 0.10332,0.0074 0.151144,0.02577 0.15202,0.05831 0.366073,0.255071 0.503814,0.360741 0.03917,0.03005 0.08216,0.0997 0.125954,0.0773 0.01502,-0.0077 0,-0.03436 0,-0.05153 0,-0.334386 -0.09737,-0.423425 0.176334,-0.283439 0.04942,0.02527 0.490947,0.245066 0.529005,0.206138 0.0926,-0.09472 -0.03526,-0.217461 -0.07557,-0.28344 -0.02397,-0.03922 -0.03167,-0.08673 -0.05038,-0.128836 -0.189854,-0.427239 -0.557509,-0.827941 -0.881674,-1.159526 -0.02141,-0.0219 -0.05416,-0.02964 -0.07557,-0.05153 -0.08175,-0.08362 -0.144917,-0.199769 -0.226716,-0.28344 -0.01328,-0.01358 -0.03912,-0.0104 -0.05038,-0.02577 -0.02505,-0.03417 -0.04669,-0.125061 -0.07557,-0.154603 -0.0059,-0.0061 -0.01925,0.0061 -0.02519,0 -0.06982,-0.07142 0.103141,-0.344507 0.125953,-0.386509 0.09588,-0.176536 0.243043,-0.351674 0.35267,-0.46381 0.0059,-0.0061 0.01925,0.0061 0.02519,0 0.0059,-0.0061 -0.0059,-0.01969 0,-0.02577 0.01188,-0.01215 0.03851,0.01215 0.05038,0 0.0059,-0.0061 -0.0059,-0.01969 0,-0.02577 0.01187,-0.01215 0.03851,0.01215 0.05038,0 0.0059,-0.0061 -0.0059,-0.01969 0,-0.02577 0.01781,-0.01822 0.05304,0.01152 0.07557,0 9.79e-4,-5.17e-4 0.09785,-0.125853 0.100763,-0.128837 0.02099,-0.02147 0.104961,0.02147 0.125953,0 0.0059,-0.0061 -0.0059,-0.01969 0,-0.02577 0.01188,-0.01215 0.03536,0.0077 0.05038,0 0.08231,-0.0421 0.115898,-0.05157 0.176335,-0.154603 0.06603,-0.112574 -0.02171,0.01865 0.05038,-0.128836 0.03125,-0.06392 0.09662,-0.120352 0.125954,-0.180371 0.0075,-0.01536 -0.0093,-0.03724 0,-0.05153 0.01473,-0.02261 0.158516,-0.132732 0.176334,-0.154603 0.02404,-0.02951 0.02692,-0.07307 0.05038,-0.103069 0.01173,-0.015 0.03911,-0.0104 0.05038,-0.02577 0.01593,-0.02173 0.0064,-0.0581 0.02519,-0.0773 0.01878,-0.01921 0.05182,-0.01362 0.07557,-0.02577 0.0045,-0.0023 0.167608,-0.188286 0.176335,-0.206138 0.05041,-0.103123 -0.196518,-0.191974 -0.251907,-0.206138 -0.01012,-0.0026 -0.148077,0.0094 -0.151145,0 -0.0078,-0.02382 0.193427,-1.151241 0.251907,-1.21106 0.0059,-0.0061 0.0072,0.02135 0,0.02577 -0.112702,0.06917 -0.235113,0.120247 -0.352669,0.180371 -0.0072,0.0037 -0.08098,0.04601 -0.100763,0.02577 -0.111284,-0.113831 -0.02987,-0.349342 -0.07557,-0.489578 -0.0027,-0.0082 -0.01696,-0.0017 -0.02519,0 -0.336883,0.06892 -0.130261,0.01509 -0.453433,0.180371 -0.03709,0.01897 -0.119811,0.05782 -0.125953,0.05153 -0.01259,-0.01288 0.0126,-0.06442 0,-0.0773 -0.04053,-0.04146 -0.245046,-0.04528 -0.302289,-0.02577 -0.06047,0.02062 -0.233887,0.368077 -0.302288,0.438043 -0.0059,0.0061 -0.01821,-0.0048 -0.02519,0 -0.135898,0.09267 0.01735,0.008 -0.07557,0.103069 -0.05921,0.06057 -0.317103,0.05063 -0.37786,0.02577 -0.03214,-0.01315 -0.07628,-7.27e-4 -0.100763,-0.02577 -0.0059,-0.0061 0.0059,-0.01969 0,-0.02577 -0.03359,-0.03436 -0.02417,0.05466 -0.05038,-0.02577 -0.01329,-0.04078 -0.0053,-0.123839 -0.05038,-0.154604 -0.01397,-0.0095 -0.03445,0.0054 -0.05038,0 -0.0201,-0.0069 -0.03552,-0.0925 -0.07557,-0.05153 -0.128801,0.131749 -0.07557,0.458311 -0.07557,0.644181 0,0.02235 0.0081,0.108205 0,0.128836 -0.0382,0.09769 -0.124054,0.172109 -0.176335,0.257673 -0.08663,0.141786 -0.150623,0.257005 -0.251907,0.386508 -0.08923,0.114089 -0.160639,0.370454 -0.251907,0.463811 -0.0059,0.0061 -0.01925,-0.0061 -0.02519,0 -0.02099,0.02147 -0.0042,0.0816 -0.02519,0.103068 -0.0071,0.0073 -0.06886,0.04124 -0.07557,0.05154 -0.04305,0.06604 -0.0582,0.127058 -0.07557,0.180371 -0.0099,0.03052 -0.06141,0.04833 -0.07557,0.0773 -0.0078,0.01592 -0.01585,0.09352 -0.02519,0.103069 -0.02029,0.02076 -0.07996,0.06051 -0.100763,0.103069 -0.01273,0.02604 -0.137259,0.317619 -0.176333,0.257666 -0.01473,-0.0226 -0.01202,-0.05372 -0.02519,-0.0773 -0.06737,-0.120592 -0.135694,-0.237277 -0.201532,-0.360741 -0.09047,-0.169659 -0.208536,-0.321757 -0.302288,-0.489578 -0.07508,-0.134403 -0.135416,-0.287756 -0.226716,-0.412276 -0.106377,-0.145082 -0.235668,-0.307289 -0.32748,-0.46381 -0.05721,-0.09753 -0.09469,-0.212962 -0.151144,-0.309207 -0.02444,-0.04166 -0.07952,-0.05961 -0.100762,-0.103069 -0.0075,-0.01536 0.0075,-0.03617 0,-0.05154 -0.02645,-0.05411 -0.09538,-0.102486 -0.125954,-0.154604 -0.134424,-0.229168 -0.245274,-0.469681 -0.37786,-0.695716 -0.03754,-0.06399 -0.118232,-0.113039 -0.151145,-0.18037 -0.03102,-0.06346 0.07312,0.02326 -0.02519,-0.0773 -0.161206,-0.164896 -0.320267,0.37546 -0.428242,0.412275 -0.05247,0.01789 -0.06647,-0.470019 -0.151144,-0.412275 -0.03701,0.02524 -0.302289,0.423203 -0.302289,0.489577 0,0.0026 -0.03325,-0.143267 -0.07557,-0.128836 -0.145023,0.04945 -0.271833,0.139027 -0.403051,0.206138 -0.05548,0.02837 -0.0094,-0.05153 -0.02519,-0.05153 -0.02519,0 0,0.05153 0,0.0773 0,0.06871 0,0.137425 0,0.206138 0,0.05702 -2.44e-4,0.179872 -0.02519,0.128836 -5.3e-4,-0.0011 -0.01656,-0.103069 -0.02519,-0.103069 -0.0084,0 0,0.01718 0,0.02577 0,0.03436 0,0.06871 0,0.103069 0,0.137425 -0.0103,0.275255 0,0.412276 0.01403,0.186598 0.0269,0.08139 0.100763,0.257672 0.03804,0.09079 -0.01908,0.0898 0.05038,0.231906 0.117814,0.24102 0.272327,0.457303 0.428242,0.669948 0.07594,0.103566 0.131047,0.226836 0.201525,0.334974 0.03638,0.05582 0.09119,0.09772 0.125954,0.154603 0.04383,0.07173 0.05973,0.158458 0.100763,0.231905 0.108612,0.194422 0.248533,0.372705 0.302288,0.592647 0.0381,0.155878 0,0.379363 0,0.541111"
       id="path1937" />
    <text
       xml:space="preserve"
       style="font-size:5.33333px;line-height:1.25;font-family:'Antipasto Pro';-inkscape-font-specification:'Antipasto Pro'"
       x="2.6134772"
       y="-23.668461"
       id="text3115"
       transform="rotate(89.796699)"><tspan
         sodipodi:role="line"
         id="tspan3113"
         x="2.6134772"
         y="-23.668461">explore</tspan></text>
  </g>
</svg>
