<?xml version="1.0" encoding="UTF-8" standalone="no"?>
<!-- Created with Inkscape (http://www.inkscape.org/) -->

<svg
   width="1920"
   height="1080"
   viewBox="0 0 1920 1080"
   version="1.1"
   id="svg5"
   inkscape:version="1.1.1 (3bf5ae0d25, 2021-09-20)"
   sodipodi:docname="explorexLOGOBIG.svg"
   xmlns:inkscape="http://www.inkscape.org/namespaces/inkscape"
   xmlns:sodipodi="http://sodipodi.sourceforge.net/DTD/sodipodi-0.dtd"
   xmlns="http://www.w3.org/2000/svg"
   xmlns:svg="http://www.w3.org/2000/svg">
  <sodipodi:namedview
     id="namedview7"
     pagecolor="#505050"
     bordercolor="#eeeeee"
     borderopacity="1"
     inkscape:pageshadow="0"
     inkscape:pageopacity="0"
     inkscape:pagecheckerboard="0"
     inkscape:document-units="px"
     showgrid="false"
     inkscape:zoom="0.5"
     inkscape:cx="1135"
     inkscape:cy="641"
     inkscape:window-width="1920"
     inkscape:window-height="991"
     inkscape:window-x="-9"
     inkscape:window-y="-9"
     inkscape:window-maximized="1"
     inkscape:current-layer="layer2" />
  <defs
     id="defs2" />
  <g
     inkscape:groupmode="layer"
     id="layer2"
     inkscape:label="Camada 2" />
  <g
     inkscape:label="Camada 1"
     inkscape:groupmode="layer"
     id="layer1">
    <path
       style="fill:#ff2a2a;stroke:#ff2a2a;stroke-width:32.4988px;stroke-linecap:butt;stroke-linejoin:miter;stroke-opacity:1"
       d="m 1254.1125,627.00083 c -24.8118,45.36815 -51.1357,89.46991 -74.1998,135.9567 -3.142,6.33191 -18.5475,25.80254 -19.7944,32.63047 0,2.6383 0.9818,5.5932 0,8.1259 -0.9819,2.4273 -3.9275,3.166 -4.9094,5.4877 -0.9818,2.3217 -5.1057,18.8374 -2.4547,21.7501 2.2583,2.5328 17.2809,-2.7438 17.3104,-2.7438 19.7355,-4.8545 33.8941,-19.9878 51.9408,-29.9078 4.713,-2.5327 10.6729,-2.0051 14.836,-5.48761 2.8474,-2.3217 5.3021,-8.12595 9.8972,-8.12595 0.9819,0 0,1.79404 0,2.74382 -2.2583,9.07574 -5.2039,18.05654 -7.4622,27.19554 -3.0437,12.5372 -7.0694,25.6232 -9.8874,38.0654 -0.9818,2.6383 0.9819,5.5932 0,8.1259 -3.3383,12.7588 -10.6041,24.4834 -12.3715,38.0759 -0.059,0 -2.8474,24.2512 -2.4547,24.4729 1.6692,1.0553 3.4366,-1.4775 4.9094,-2.7439 8.444,-6.9651 16.3481,-14.7006 24.7332,-21.7501 10.7417,-9.0757 20.7763,-19.154 32.1562,-27.1956 10.8496,-7.7038 24.1932,-10.6903 34.6305,-19.0379 4.7129,-3.7991 7.5603,-9.92 12.3617,-13.5925 3.6329,-2.7438 8.6404,-2.7438 12.3715,-5.3821 2.1601,-1.583 25.7839,-27.1956 27.2076,-27.1956 0.9818,0 0,1.7941 0,2.7438 0,5.3822 0,10.8698 0,16.3153 0,11.5979 -7.0695,46.9089 -2.4547,57.1033 3.5347,7.8093 4.1238,-6.332 4.9093,-8.126 1.571,-3.4825 5.4985,-4.96 7.4622,-8.126 1.571,-2.6382 3.0438,-7.7038 4.9094,-10.8803 2.4546,-4.1157 4.9093,-2.7438 7.4622,-8.1259 1.4728,-3.3771 0.9818,-7.4928 2.4546,-10.8804 0,-1.0553 1.8656,1.0553 2.4547,0 1.0801,-1.1608 0,-9.92 0,-10.8698 0,0 4.1239,-2.8493 4.9094,-5.4876 2.4546,-7.9149 -0.01,-10.8487 4.9093,-19.0274 3.8293,-6.2264 1.7674,-23.6708 4.9093,-27.19557 0.9819,-1.05532 1.8656,1.05532 2.4547,0 1.1782,-1.26638 -0.9819,-3.69361 0,-5.48765 0,-1.47745 6.7749,-17.6977 7.4622,-19.03795 3.0438,-6.75404 1.8655,1.26638 4.9093,-5.48766 3.0438,-6.64851 -7.1676,2.42723 2.4547,-8.12595 1.2764,-1.47745 3.9275,-1.05532 4.9093,-2.74383 1.8656,-3.06042 0.9819,-7.80936 2.4547,-10.88033 6.284,-10.34213 13.2454,-20.32544 19.7846,-29.90773 5.9894,-8.75915 9.2296,-20.6948 14.8459,-29.90773 0,-5.38213 3.6329,-1.26638 4.9093,-2.74383 1.2765,-1.37192 -1.2764,-6.75404 0,-8.12595 5.3021,-5.80426 17.5067,11.84067 27.2076,21.75011 28.6313,29.23233 55.4755,60.52252 84.097,89.73374 10.5845,10.80647 20.6683,20.24101 29.6818,32.63043 9.1314,12.5478 13.5694,25.792 24.7333,38.0759 4.5166,4.96 9.7205,9.3924 14.8458,13.5925 6.9713,5.8043 17.9191,14.2785 27.2076,16.3152 0.9818,0 0,-1.794 0,-2.7438 0,-4.5379 0,-9.0757 0,-13.603 0,-20.1144 -4.1239,-39.9861 -7.4622,-59.82605 0,-1.58298 -5.1057,-16.14637 -2.4547,-19.02739 3.5347,-3.90468 10.1427,1.05532 14.836,2.74383 14.9342,6.12084 35.9462,26.92121 49.4764,38.07591 3.8292,3.1659 8.0513,10.5532 12.3617,8.1259 1.4728,-1.0553 0,-3.588 0,-5.4876 0,-35.28988 -9.5241,-44.69277 17.3201,-29.91831 4.8112,2.6383 48.1999,25.86591 51.9408,21.76071 9.1314,-10.02556 -3.4365,-22.95322 -7.4622,-29.91832 -2.3564,-4.11574 -3.1419,-9.18127 -4.9093,-13.5925 -18.6359,-45.09377 -54.7391,-87.38038 -86.5713,-122.37475 -2.0619,-2.3217 -5.3021,-3.16595 -7.364,-5.38212 -8.0513,-8.86468 -14.2371,-21.08527 -22.2688,-29.90773 -1.2764,-1.47745 -3.8292,-1.05532 -4.9093,-2.74383 -2.4547,-3.58808 -4.6148,-13.20203 -7.4622,-16.31522 -0.9819,-1.05532 -1.8655,1.05531 -2.4547,0 -6.873,-7.49277 10.1231,-36.35573 12.3716,-40.78807 9.4259,-18.62637 23.8594,-37.11555 34.6206,-48.94567 0.9819,-1.05532 1.8656,1.05531 2.4547,0 0.9819,-1.05532 -0.9819,-2.11064 0,-2.74383 1.1782,-1.26639 3.8293,1.26638 4.9093,0 0.9819,-1.05532 -0.9818,-2.11064 0,-2.74383 1.1783,-1.26638 3.7311,1.26638 4.9094,0 0.9818,-1.05532 -0.9819,-2.11064 0,-2.74383 1.7673,-1.89957 5.2039,1.26638 7.4622,0 0.098,-0.0528 9.6223,-13.28646 9.8972,-13.60306 2.0619,-2.21617 10.3096,2.3217 12.3715,0 0.9819,-1.05532 -0.9818,-2.11063 0,-2.74382 1.1783,-1.26639 3.4366,1.05531 4.9094,0 8.0513,-4.43234 11.3798,-5.48766 17.3201,-16.31523 6.4803,-11.88289 -2.1601,2.0051 4.9094,-13.60306 3.0437,-6.75404 9.5241,-12.69548 12.3617,-19.02739 0.9818,-1.58298 -0.9819,-3.90468 0,-5.48766 1.4728,-2.42723 15.5626,-14.00408 17.3103,-16.31522 2.3565,-3.16596 2.651,-7.70383 4.9093,-10.86979 1.1783,-1.58297 3.8293,-1.05531 4.9094,-2.74382 1.571,-2.3217 0.9819,-6.12085 2.4547,-8.12596 1.8655,-2.0051 5.1057,-1.47744 7.4621,-2.74383 0,0 16.4562,-19.87164 17.3104,-21.75011 4.9093,-10.88034 -19.2937,-20.26212 -24.7333,-21.76067 -0.9818,0 -14.5414,1.05532 -14.836,0 -0.9819,-2.53277 18.9893,-121.48828 24.7333,-127.79908 0.9818,-1.05532 0.9818,2.21617 0,2.74382 -11.0657,7.2817 -23.0936,12.68493 -34.6305,19.0274 -0.9819,0 -7.9532,4.85446 -9.8973,2.74383 -10.9281,-12.00953 -2.9456,-36.86228 -7.364,-51.6684 0,-1.05532 -1.6691,0 -2.4546,0 -33.0792,7.2817 -12.7938,1.58298 -44.5277,19.03795 -3.6329,2.0051 -11.7628,6.12084 -12.3618,5.38212 -1.2764,-1.37191 1.2765,-6.75404 0,-8.12595 -3.9274,-4.32681 -24.0655,-4.74894 -29.6818,-2.74383 -5.9894,2.21617 -22.9659,38.84628 -29.6819,46.23351 -0.9818,1.05532 -1.7673,0 -2.4546,0 -13.3436,9.81446 1.6691,1.05532 -7.4622,10.88033 -5.7931,6.43745 -31.1351,5.38213 -37.095,2.74383 -3.142,-1.37191 -7.4622,-0.0739 -9.8972,-2.74383 -0.9819,-1.05532 0.9818,-2.11063 0,-2.74383 -3.3384,-3.58808 -2.3565,5.80426 -4.9094,-2.74382 -1.2764,-4.32681 -0.9818,-13.06485 -4.9093,-16.31523 -1.3746,-1.05532 -3.3384,1.05532 -4.9094,0 -1.9637,-1.05532 -3.5347,-9.70893 -7.4622,-5.38212 -12.6464,13.89854 -7.4621,48.36525 -7.4621,67.98362 0,2.3217 0.9818,11.41855 0,13.5925 -3.7311,10.34213 -12.1752,18.16204 -17.3104,27.19556 -8.5422,14.96442 -14.7869,27.12169 -24.7332,40.78807 -8.7386,12.04118 -15.7688,39.089 -24.7333,48.94567 -0.9818,1.05532 -1.8655,-1.05531 -2.4546,0 -2.062,2.3217 0,8.65362 -2.4547,10.88034 -0.9819,1.05532 -6.7749,4.3268 -7.4622,5.48766 -4.222,6.9651 -5.6948,13.41309 -7.4622,19.03794 -0.9819,3.27149 -5.9894,5.06553 -7.4622,8.12596 -0.9819,1.68851 -1.571,9.91999 -2.4547,10.86978 -1.9637,2.21617 -7.8549,6.43744 -9.8972,10.88033 -1.2764,2.74383 -13.4712,33.51692 -17.3103,27.19556 -1.4728,-2.42723 -1.1783,-5.69872 -2.4547,-8.12595 -6.5785,-12.72714 -13.3239,-25.04271 -19.7846,-38.0759 -8.935,-17.8982 -20.472,-33.9496 -29.6819,-51.65784 -7.364,-14.18348 -13.2945,-30.37207 -22.2589,-43.51079 -10.4471,-15.31267 -23.1427,-32.42994 -32.1562,-48.94567 -5.5967,-10.34213 -9.3278,-22.47829 -14.836,-32.63045 -2.3565,-4.43234 -7.855,-6.33192 -9.8973,-10.88034 -0.9818,-1.58298 0.9819,-3.79915 0,-5.48766 -2.5528,-5.69872 -9.3277,-10.81701 -12.3715,-16.31522 -13.1963,-24.1879 -24.0754,-49.56832 -37.095,-73.42907 -3.7311,-6.75404 -11.6056,-11.9251 -14.8458,-19.02739 -3.0438,-6.64851 7.1676,2.42723 -2.4547,-8.12596 -15.8375,-17.4022 -31.4492,39.61666 -42.0534,43.50024 -5.2039,1.89957 -6.5785,-49.59998 -14.836,-43.50024 -3.6329,2.6383 -29.6819,44.66109 -29.6819,51.65785 0,0 -3.2401,-15.11216 -7.4622,-13.59251 -14.237,5.2766 -26.6871,14.66893 -39.5692,21.75012 -5.4985,2.95489 -0.9819,-5.48766 -2.4547,-5.48766 -2.4547,0 0,5.48766 0,8.12596 0,7.2817 0,14.50007 0,21.76067 0,6.01531 -0.03,18.97463 -2.4547,13.5925 -0.059,0 -1.6691,-10.88033 -2.4546,-10.88033 -0.9819,0 0,1.79404 0,2.74382 0,3.58809 0,7.2817 0,10.88034 0,14.50008 -0.9819,29.04237 0,43.50023 1.3746,19.69225 2.651,8.54808 9.8972,27.19556 3.7311,9.6034 -1.8656,9.49787 4.9093,24.47284 11.5664,25.43318 26.7461,48.25972 42.0534,70.70635 7.4622,10.92254 12.8625,23.93462 19.7847,35.34262 3.5347,5.90978 8.935,10.34212 12.3715,16.31522 4.3202,7.5983 5.8912,16.7268 9.8874,24.47284 10.6631,20.52595 24.3994,39.33172 29.6819,62.54873 3.7311,16.45242 0,40.03879 0,57.10329"
       id="path1937" />
    <text
       xml:space="preserve"
       style="font-size:302.007px;line-height:1.25;font-family:'Antipasto Pro';-inkscape-font-specification:'Antipasto Pro';stroke-width:1.57295"
       x="173.24242"
       y="605.9519"
       id="text1031"
       transform="scale(0.9799285,1.0204826)"><tspan
         sodipodi:role="line"
         id="tspan1029"
         x="173.24242"
         y="605.9519"
         style="stroke-width:1.57295">explore</tspan></text>
  </g>
</svg>
